
<svg version="1.1" id="レイヤー_1" xmlns="http://www.w3.org/2000/svg" viewBox="0 0 238.833 42.709">
	 <g>
				<path fill="#231815" d="M20.609,3.527c-10.285,0-18.623,8.339-18.623,18.622c0,10.287,8.338,18.623,18.623,18.623
					s18.622-8.336,18.622-18.623C39.231,11.866,30.895,3.527,20.609,3.527z M20.609,37.756c-8.62,0-15.608-6.986-15.608-15.607
					c0-8.619,6.988-15.607,15.608-15.607c8.619,0,15.607,6.988,15.607,15.607C36.217,30.77,29.229,37.756,20.609,37.756z"/>

		<path fill="#231815" d="M29.074,22.249c1.831,0.563,4.301,1.313,5.393-0.154c1.489-2.003-0.584-3.533-1.694-5.701
			c-1.079-2.105-2.698-1.34-3.853-1.078c-1.646,0.375-3.058,0.367-5.625,0.335c0.364-2.463,1.437-2.989,1.721-4.65
			c0.333-1.941-0.673-2.393-2.876-3.287c-3.543-1.438-4.314,1.078-6.984,1.284c-1.33,0.103-0.669,0.724,0.154,1.49
			c1.147,1.068,1.56,3.224,1.69,5.271c-3.068,0.271-4.907,0.762-7.237-0.443c-1.064-0.551-0.848-1.387-2.363,1.644
			c-0.528,1.058-1.81,2.868-0.77,4.726c0.719,1.283,0.655,2.3,2.208,1.797c1.624-0.527,4.765-1,8.131-1.305
			c-0.172,2.711-0.688,3.889-2.224,4.693c-1.612,0.848-3.386,0.887-5.291,0.463c-2.359-0.523-2.26-1.027-0.821,2.105
			C11,34.592,17.211,36.629,21.37,32.16c2.568,2.209,6.063,2.768,7.961,1.49c2.671-1.799,3.808-5.254,4.211-7.447
			c0.36-1.953,0.172-2.266-1.078-1.08c-2.054,1.953-4.799,1.836-7.55,0.566c-1.239-0.573-1.737-2.133-1.898-3.856
			C25.66,21.784,27.933,21.897,29.074,22.249z"/>
			<path fill="#231815" d="M53.195,30.988c0.616,0.172,1.28,0.264,1.737-0.342c0.151-0.199,0.434-0.666,0.551-0.141
				c0.084,0.373,0.035,0.76,0.141,1.125c0.103,0.352,0.234,0.654,0.592,0.773c0.384,0.129,0.593,0.002,0.744-0.361
				c0.142-0.334,0.111-0.654,0.168-1.027c0.044-0.287,0.076-0.75,0.323-0.922c0.604-0.414,1,0.66,1.433,0.881
				c0.299,0.15,0.615,0.307,0.938,0.375c0.392,0.082,0.531,0.004,0.75-0.34c0.148-0.232,0.438-0.559,0.506-0.832
				c0.085-0.35-0.367-0.539-0.64-0.641c-0.618-0.229-1.285-0.406-1.901-0.654L57.6,28.061c-0.386-0.416,0.808-0.721,1.037-0.744
				c0.249-0.025,0.56,0,0.751-0.188c0.146-0.143,0.242-0.404,0.362-0.576c0.198-0.279,0.323-0.463,0.005-0.719
				c-0.318-0.26-0.551-0.17-0.895-0.1c-0.359,0.074-0.775,0.068-1.145,0c-0.275-0.051-0.722-0.109-0.896-0.363
				c-0.365-0.535,0.54-1.252,0.992-1.365c0.937-0.236,0.976-0.811,0.914-1.524c-0.023-0.275-0.152-0.651-0.334-0.862
				c-0.185-0.215-0.533-0.539-0.792-0.287c-0.241,0.233-0.003,0.629-0.164,0.914c-0.382,0.676-0.55,0.516-0.686,0.076
				c-0.104-0.344-0.034-0.736-0.018-1.085c0.018-0.389-0.117-0.597-0.423-0.796c-0.299-0.195-0.565-0.288-0.821-0.008
				c-0.155,0.17-0.341,0.604-0.375,0.827c-0.044,0.296,0.585,0.565,0.283,0.804c-0.237,0.188-0.746-0.149-0.943-0.281
				c-0.249-0.167-0.518-0.466-0.839-0.33c-0.32,0.135-0.405,0.629-0.357,0.916c0.081,0.49,0.289,1.338,0.707,1.683
				c0.512,0.418,0.957,0.215,1.243,0.586c0.165,0.209,0.165,0.656,0.048,0.914c-0.055,0.119-0.229,0.26-0.334,0.322
				c-0.178,0.105-0.42,0.311-0.65,0.336c-0.367,0.035-0.686-0.121-1.037,0.063c-0.316,0.164-0.468,0.432-0.307,0.762
				c0.158,0.326,0.381,0.518,0.704,0.633c0.353,0.125,0.7-0.008,1.058,0.021c-0.019,0.338-0.351,0.715-0.543,1
				c-0.378,0.568-0.678,1.289-1.471,1.248c-0.242-0.014-0.898-0.23-0.73,0.287c0.123,0.383,0.617,0.246,0.801,0.463
				C52.745,30.688,53.193,30.961,53.195,30.988z"/>
			<path fill="#231815" d="M49.925,24.32c0.201-0.066,0.583-0.023,0.583-0.628c0-0.605,0.134-1.705-0.046-1.951
				c-0.179-0.246-0.537-0.135-0.135-0.561c0.404-0.427,0.719-0.673,1.145-0.516c0.427,0.156,0.605,0.471,0.539,1.166
				c-0.081,0.826-0.191,1.675-0.112,1.951c0.09,0.314,0.703,0.478,1.144,0.494c0.65,0.021,0.392,0.814,0.246,1.008
				c-0.27,0.359-1.076,0.18-1.009,0.74c0.036,0.313-0.022,0.27,0.179,0.428c0.201,0.156,0.426,0.627,0.18,0.918
				c-0.246,0.293-0.649,0.518-0.582,0.854c0.066,0.336,0.224,1.008,0.224,1.502c0,0.344,0.023,0.74-0.247,1.256
				c-0.236,0.453-0.044,1.1-0.336,1.369c-0.293,0.27-0.452-0.027-0.673-0.338c-0.225-0.314-0.733-1.67-0.538-2.645
				c0.045-0.227,0.022-0.293-0.246-0.18c-0.494,0.205-0.585,0.582-0.764,0.896c-0.18,0.314-1.099,0.986-1.793,0.717
				c-0.696-0.27-0.896-0.973-0.808-1.277c0.089-0.314,0.515-0.74,1.188-0.965c0.914-0.307,1.391-1.234,1.659-1.459
				c0.269-0.223,0.493-0.516,0.517-0.83c0.037-0.516,0.133-0.627-0.181-0.514c-0.313,0.111-0.627,0.045-0.919-0.225
				c-0.293-0.27-0.584-0.898-0.09-1.145C49.543,24.141,49.595,24.43,49.925,24.32z"/>

			<path fill="#231815" d="M64.729,24.723c0.05-0.402-0.203-0.875,0.583-1.031c0.783-0.156,1.57-0.314,2.444-0.246
				c0.875,0.066,1.502-0.135,1.861-0.27c0.18-0.808-0.045-2.085,0.404-2.467s0.784-0.404,1.255-0.18
				c0.472,0.224,0.785,0.672,0.448,1.076c-0.336,0.404-0.314,0.881-0.199,1.301c0.066,0.246,0.333,0.246,0.492,0.022
				c0.157-0.224,0.135-0.763,0.583-1.413s0.807-0.874,1.3-0.672c0.493,0.201,0.359,1.277,0.158,1.479
				c-0.202,0.203-0.651,0.539-0.763,0.809c-0.112,0.27,0.022,0.381,0.427,0.426c0.403,0.045,0.941-0.225,0.896,0.359
				c-0.044,0.584-0.785,1.479-1.503,1.346c-0.717-0.135-1.301-0.381-1.412,0.156c-0.111,0.539-0.153,1.619,1.301,3.275
				c1.771,2.018,3.387,1.996,2.826,2.826c-0.401,0.594-0.65,0.627-0.853,0.896s-0.251,0.42-1.032,0.045
				c-1.638-0.785-2.502-2.568-2.982-4.061c-1.031-3.207-1.256-3.252-1.95-3.363c-0.869-0.139-2.693,0.068-2.983,0.404
				c-0.292,0.336-0.562,0.18-0.921,0.09C64.751,25.441,64.706,24.902,64.729,24.723z"/>
			<path fill="#231815" d="M71.053,26.988c-0.605,0.203-1.076,0.201-1.817-0.021c-0.739-0.225-2.354-0.135-2.982,0.156
				c-0.628,0.291-0.56,0.857-0.426,1.301c0.202,0.672,1.233,0.381,1.122,1.279c-0.105,0.838-0.157,0.693-1.01,0.852
				c-0.332,0.063-1.188,0.404-0.876,1.01c0.315,0.605,0.584,1.436,1.324,0.896c0.739-0.537,2.198-1.055,2.961-0.941
				c0.762,0.111,0.964,0.201,1.188-0.18c0.223-0.381,1.076-1.592-0.135-1.346s-1.436,0.045-1.503-0.494
				c-0.067-0.537-0.106-0.902,0.426-1.053c0.875-0.248,0.517-0.674,1.032-0.674s1.031,0.045,1.076-0.201
				C71.479,27.324,71.053,26.988,71.053,26.988z"/>

			<path fill="#231815" d="M81.864,22.234c0.563-0.563,0.448-0.649,0.986-1.323c0.538-0.673,1.079-1.104,1.615-0.807
				c0.853,0.471,0.64,1.338,1.054,1.793c0.448,0.494,2.422,2.177,3.208,2.109c0.784-0.066,1.144-0.09,1.413,0.135
				c0.269,0.225,0.224,0.246-0.112,0.672c-0.337,0.426-1.546,1.291-2.176,0.83c-1.009-0.74-2.894-2.355-3.162-2.871
				c-0.27-0.516-0.473-0.449-0.898-0.111c-0.426,0.336-2.443,1.771-2.712,2.107c-0.271,0.338-0.74,0.65-1.033,0.563
				c-0.291-0.09-0.783,0.244-1.301,0.064c-0.516-0.178-1.346-0.762-0.65-1.053c0.696-0.291,0.719-0.673,1.257-0.785
				c0.539-0.111,1.076-0.27,1.683-0.65C81.64,22.525,81.774,22.325,81.864,22.234z"/>
			<path fill="#231815" d="M81.013,23.713c0.668-0.369,1.412-0.045,2.286,0.359c0.876,0.404,0.942,0.135,1.347,0.09
				c0.403-0.045,0.784,0.045,1.055,0.158c0.268,0.111,0.313-0.426,0.694-0.338c0.381,0.09,0.493,0.541,0.022,0.83
				c-0.472,0.293-0.382,0.74-0.875,0.896c-0.493,0.158-0.919,0.09-1.188-0.021c-0.269-0.111-0.516-0.178-0.965,0.18
				c-0.448,0.359-1.568,0.402-1.794-0.066C81.371,25.33,80.16,24.186,81.013,23.713z"/>
			<path fill="#231815" d="M78.59,28.67c-0.055-0.715,0.515-1.502,1.232-1.434c0.72,0.066,1.908-0.045,2.917-0.18
				c1.01-0.135,2.377,0.043,2.961,0.156c0.583,0.111,0.964-0.156,1.704-0.156c0.739,0,2.354,0.066,1.929,0.627
				c-0.427,0.561-0.561,0.852-0.987,1.055c-0.359,0.17-2.22,0.717-3.027,0.449c-0.808-0.27-4.105-0.428-4.89,0.156
				c-0.587,0.436-0.537,0.627-1.256,0.246C78.456,29.209,78.612,28.963,78.59,28.67z"/>
			<path fill="#231815" d="M80.654,28.379c0.358,0.471,0.896,0.896,0.447,1.414c-0.447,0.514-1.055,1.436-0.539,2.018
				c0.518,0.582,1.84,0.65,2.288,0.402c0.448-0.246,0.248-0.469,1.1-0.379c0.853,0.09,1.66,0.313,2.018,0.471
				c0.359,0.156,1.055,0.156,1.437-0.314s0.156-1.615-0.314-2.02s-0.471-1.412-0.314-1.816c0.158-0.404-3.005-0.291-2.78,0.158
				c0.224,0.447,1.032,0.875,1.323,1.322c0.292,0.447-0.202,0.762-0.584,0.672c-0.381-0.088-0.717,0.002-0.942,0.137
				c-0.223,0.133-0.672,0.246-0.896-0.047c-0.225-0.291-0.449-0.695,0.628-1.391c1.076-0.693-1.525-1.119-1.525-1.119L80.654,28.379
				z"/>

			<path fill="#231815" d="M94.224,24.131c0.067-0.494,0.693-0.673,0.986-0.628c0.378,0.059,0.784-0.111,0.986-0.224
				c0.203-0.112,0.313-0.158,0.269-0.584c-0.043-0.426-0.226-1.345,0-1.816c0.225-0.471,0.338-0.515,0.718-0.314
				c0.382,0.202,0.65,0.36,0.65,0.897c0,0.539-0.246,1.412,0.247,1.637s1.119,0.377,1.233,0.764c0.181,0.605-0.74,1.771-1.188,2.31
				c-0.219,0.262-0.283,0.381-0.134,0.717c0.179,0.404,0.875,1.055,1.188,1.1c0.315,0.045,0.426,0.045,0.403,0.426
				c-0.031,0.553-0.53,0.971-1.009,1.01c-0.582,0.045-0.986-0.471-1.055,0.045c-0.065,0.516-0.116,0.945,0.046,1.367
				c0.225,0.582,0.225,1.145-0.022,1.57s-0.359,0.449-0.829,0.314c-0.445-0.127-0.879-0.725-0.651-1.391
				c0.27-0.785,0.225-1.57,0.112-1.795c-0.172-0.346-0.531,0.08-0.852,0.314c-0.92,0.672-2.064,0.111-2.288-0.426
				c-0.226-0.539,0.022-0.629,0.292-0.83c0.269-0.201,2.938-2.422,3.273-2.668c0.338-0.248,0.516-0.83,0.248-1.078
				c-0.271-0.246-0.63,0.023-1.01,0.201c-0.382,0.18-0.876,0.74-1.392,0.381C93.931,25.072,94.197,24.318,94.224,24.131z"/>
			<path fill="#231815" d="M98.979,26.283c-0.103-0.406,0.277-1.141,1.009-1.121c0.874,0.021,0.986-0.135,0.986-0.539
				s-0.088-1.209-0.269-1.837c-0.18-0.629-0.135-1.256,0.246-1.638c0.38-0.382,0.695-0.472,1.1-0.158
				c0.465,0.362,0.673,0.606,0.65,1.257s-0.561,0.986-0.583,1.681c-0.023,0.695,0.112,0.941,0.583,1.01
				c0.471,0.066,1.749-0.225,1.57,0.471c-0.18,0.695-0.382,1.234-1.01,1.322c-0.629,0.092-0.829,0.137-1.009,0.922
				c-0.181,0.783-0.202,1.547,0,1.949c0.201,0.404,0.179,0.473,0.649,0.516c0.471,0.047,1.503,0.203,1.749,0.203
				c0.247,0,0.675-0.246,0.719,0.291c0.044,0.539-0.763,1.729-1.301,1.682c-0.538-0.045-0.809-0.223-1.437-0.492
				c-0.627-0.27-2.691,0.045-3.139,0.246c-0.448,0.201-1.551-0.119-1.503-0.875c0.045-0.717,0.614-0.736,1.055-0.717
				c0.515,0.021,1.21-0.113,1.502-0.471c0.291-0.359,0.443-1.301,0.403-2.287c-0.046-1.145-0.403-1.1-0.941-0.898
				C99.472,27.002,99.134,26.912,98.979,26.283z"/>

		<path fill="#231815" d="M114.7,21.054c0.591-0.208,0.762-1.354,1.523-1.185c0.763,0.17,3.862,1.318,5.137-0.17
			c0.507-0.593-0.142-2.596-0.424-3.019c-0.281-0.423-0.282-1.157,0.62-2.06c0.904-0.904,1.242-1.299,2.062-0.819
			c1.126,0.661,2.571,1.135,2.736,1.75c0.479,1.778-0.705,1.636-0.565,3.161c0.086,0.926,0.452,1.128,0.649,1.326
			c2.229-0.255,5.356,0.255,6.462,0.309c1.156,0.059,1.805-0.45,1.891,0.367c0.074,0.702-0.254,2.371-1.721,3.02
			c-0.693,0.306-1.158,0.367-1.723,0.253s-1.607,0.143-3.273-0.14c-1.729-0.294-1.523,0.169-1.381,1.101
			c0.14,0.93,0.959,3.244,3.215,4.598c2.258,1.355,5.475,1.777,6.377,1.891c0.904,0.113,0.707,0.508,0.453,0.734
			c-0.254,0.225-0.988,1.016-1.385,2.793c-0.102,0.469,0.041,0.471-0.592,0.848c-1.664,0.986-2.004,1.285-3.611,0.705
			c-3.357-1.213-5.868-6.547-6.631-9.199c-0.133-0.461-0.536-0.564-0.789,0.17c-0.255,0.732-1.523,3.723-2.822,5.162
			s-3.78,4.148-5.954,3.697c-1.556-0.324-2.539-1.693-2.821-2.539c-0.281-0.848-1.835-2.021-0.789-2.201
			c1.636-0.281,3.555,0.113,6.35-2.229c2.865-2.402,3.02-4.355,2.933-4.994c-0.085-0.622-0.254-0.593-1.213-0.566
			c-0.96,0.029-2.709-0.056-4.036,0.82c-0.4,0.264-0.253,0.619-0.958,0.393c-0.706-0.225-1.552-0.592-1.382-1.607
			C113.206,22.409,114.222,21.223,114.7,21.054z"/>
		<path fill="#231815" d="M149.096,21.477c0.254-0.296,0.127-1.016,1.057-1.48c1-0.5,0.805-1.059,1.779-0.719
			c0.543,0.188,1.27,0.422,2.072,0.252c0.805-0.168,1.947-0.338,1.396-1.354c-0.549-1.016-0.887-1.101-0.508-1.989
			c0.383-0.89,0.635-1.481,1.525-1.692c0.889-0.213,1.396,0.084,2.328,0.551c1.006,0.503,1.432,1.642,1.057,2.326
			c-0.254,0.466-0.422,1.524,0.297,1.651c0.721,0.127,3.598,0.382,4.105-0.254c0.508-0.635,0.762-0.593,1.48-0.466
			c0.721,0.127,1.439,0.847,1.82,1.354c0.479,0.636,0.213,1.313-0.508,2.074c-0.719,0.761-1.313,0.931-1.734,2.877
			c-0.424,1.947-0.805,5.672,0.762,6.518c1.566,0.848,3.725,0.213,4.402-0.17c0.676-0.379,0.973-0.211,0.762,0.34
			c-0.213,0.551-0.889,1.82-1.059,3.471c-0.092,0.896-1.143,2.369-3.006,2.328c-1.469-0.033-1.465,0.039-2.074-0.213
			c-3.385-1.395-4.908-6.137-3.598-11.004c0.438-1.617,0.678-2.582,0-2.666c-0.676-0.085-2.199-0.423-2.453,0.677
			c-0.254,1.1-1.186,4.232-1.482,4.697s-0.332,0.871,0.043,1.482c0.338,0.549,0.99,1.299,1.65,1.818
			c1.396,1.102,0.795,2.619,0.17,3.133c-0.721,0.592-1.566,0.338-1.947,0.043c-0.381-0.297-1.227-0.17-1.482-0.678
			c-0.254-0.508-0.676-1.27-1.27-0.592c-0.592,0.676-1.523,1.564-1.861,1.945s-0.889,0.721-1.82,0.889
			c-0.932,0.17-2.074-0.295-2.963-1.016c-1.566-1.27-2.074-3.385-1.227-3.809c0.846-0.424,1.395,0.254,2.496-0.424
			c1.102-0.676,1.65-0.846,0.846-1.27c-0.803-0.424-1.691-1.059-1.65-2.455c0.043-1.396-0.168-1.48,0.932-2.074
			c1.102-0.592,1.736-0.592,2.412-0.041c0.678,0.549,1.186,0.762,1.482,1.059c0.297,0.295,0.424,0.211,0.889-0.34
			s1.355-2.455,0.551-2.582s-0.975-0.55-1.609,0c-0.635,0.55-2.539,1.185-3.26,0.507C149.18,23.51,148.744,21.886,149.096,21.477z"
			/>

				<path fill="#231815" d="M199.545,20.166c-0.295-0.636-1.363-0.811-2.369-0.55c-1.143,0.296-1.418-0.068-2.158-0.254
					c-0.508-0.128-1.186,0.338-2.285-0.084c-1.039-0.4-1.059-0.34-0.973-0.975c0.084-0.635,0.379-0.592,0.506-1.354
					c0.127-0.762-1.313-1.776-1.947-2.074c-0.635-0.296-1.014,0.085-1.395-0.042c-0.383-0.127-0.678-0.169-1.271,0.127
					c-0.592,0.297-1.396,1.228-1.227,2.031c0.17,0.805,1.186,0.762,0.762,1.736c-0.424,0.973-2.029,0.68-3.006,0.973
					c-0.424,0.127-1.1,0.424-1.818,0.34c-0.721-0.086-1.262-0.568-2.074,0.549c-0.678,0.932-0.043,1.396,0.17,2.625
					c0.211,1.226,0.719,4.867,0.381,5.839c-0.34,0.975,0.422,2.752-0.297,4.994c-0.313,0.975-0.424,1.27,0.424,2.455
					c0.523,0.732,2.066,0.047,2.877-0.338c0.805-0.381,1.861-0.465,3.174-0.424c1.313,0.043,5.08,0.17,5.629-0.084
					c0.246-0.113,2.709-0.168,3.176,0.381c0.465,0.551,1.48,0.721,2.328,0.592c1.221-0.184,1.566-2.582,1.268-4.994
					c-0.258-2.115,0.127-3.471-0.295-6.137c-0.146-0.928,0.061-1.796,0.467-2.497C200.055,22.198,199.973,21.081,199.545,20.166z
					 M195.145,31.889c-0.467,0.469-1.313,0.678-2.582,0.551s-4.232,0.043-4.994,0.043s-1.947,0.338-2.539,0.084
					c-0.594-0.254-0.889-1.27-0.889-1.609c0-0.932,0.465-1.395,1.1-1.861c0.635-0.465,1.891-0.535,2.666-0.465
					c0.932,0.084,4.742,0.029,5.842-0.127c0.295-0.043,0.611-0.473,1.186-0.127c0.422,0.254,0.168,0.805,0.465,1.48
					C195.695,30.535,195.482,31.551,195.145,31.889z M195.355,24.99c-0.635,0.127-2.623-0.127-3.512-0.041
					c-0.891,0.082-4.105,0.422-6.223,0.338c-0.564-0.023-0.973-0.127-1.227-0.508s-0.297-0.889-0.127-1.016
					c0.545-0.409,0.254-0.89,1.059-1.058c0.684-0.145,0.986-0.089,1.945,0.211c0.678,0.212,1.658-0.242,2.922-0.084
					c1.354,0.169,1.904,0.127,2.285-0.042c0.381-0.171,0.592-0.128,0.93,0.042c0.34,0.169,0.889-0.381,1.313-0.254
					s0.678-0.086,0.678,0.677C195.398,24.018,195.99,24.863,195.355,24.99z"/>

			<path fill="#231815" d="M212.838,20.884c0.102-0.233,0.238-1.17,1.26-0.989c1.02,0.18,2.459-0.301,3.869-0.271
				c1.41,0.03,3.75-0.12,3.691-0.99c-0.061-0.869-0.332-1.47-0.391-2.159c-0.061-0.689,0.119-1.44,0.631-1.8
				c0.508-0.359,0.93-0.93,1.41-0.42c0.479,0.51,2.129,1.711,2.068,2.52c-0.061,0.811-0.209,2.521,0.541,2.551
				c1.021,0.041,5.43,0.12,6.809-0.301c0.873-0.266,1.141-0.389,1.141,0.391s-0.301,2.039-0.631,2.58
				c-0.328,0.539-0.449,1.919-2.488,1.35c-2.041-0.57-4.531-0.091-6.66-0.479c-0.795-0.146-1.32,0.239-1.709,0.72
				c-0.391,0.48-1.201,1.71-1.621,2.25c0,3.301,0,4.77,0,5.279c0,0.512,0.18,0.691,0.6,0.691s1.561-0.451,2.34-0.48
				s1.561,0,2.039,1.229c0.48,1.23-0.75,2.102-1.469,2.371c-0.721,0.27-3.631,1.523-4.5,1.471c-1.98-0.121-2.4,0.719-3.15,0.42
				c-0.75-0.301-1.771-0.9-0.959-2.102c0.609-0.902,0.48-1.35,1.35-1.74c0.869-0.389,1.287-0.568,1.229-1.498
				c-0.059-0.932-0.143-1.619-0.359-1.74c-0.27-0.15-0.9,0.299-2.25,1.77c-1.121,1.221-3.719,1.049-4.289-0.059
				c-0.416-0.813-1.555-0.752-0.781-1.352c1.471-1.141,3.031-1.35,5.342-3.42c1.111-0.996,1.83-1.439,2.609-2.85
				c0.24-0.433,0.449-0.989-0.361-0.899c-1.006,0.111-2.939,0.39-3.48,0.72c-0.539,0.331-0.508,0.45-1.109,0.12
				c-0.6-0.33-1.258-0.99-1.141-1.68C212.537,21.394,212.717,21.155,212.838,20.884z"/>
			<path fill="#231815" d="M226.188,24.604c0.975-0.609,1.65-1.048,1.65-1.919c0-0.87,1.859,0.42,2.58,1.349
				c0.719,0.932,1.35,2.012,0.9,2.281c-0.451,0.27-0.51,0.93-1.26,1.109s-1.41,0.031-1.92,0.33c-0.512,0.301-0.918,0.475-0.301,1.02
				c1.02,0.9,2.311,0.932,4.111,2.07c0.541,0.344,0.93,0.211,1.318,0c0.391-0.209,0.6,0.031,1.26-0.15
				c0.66-0.178,0.721,0.15,1.41-0.029c0.691-0.18,1.809-0.037,1.26,0.75c-0.479,0.689-2.279,3.51-3.479,4.201
				c-0.461,0.264-2.271,0.457-3.359,0c-2.072-0.871-5.086-5.104-5.791-6c-0.66-0.842-2.221-2.25-2.58-2.73
				c-0.361-0.48-0.779-1.141-0.119-1.682c0.66-0.539,1.289-0.209,1.709-0.029s0.779,0.811,1.408,0.24
				C225.619,24.844,225.947,24.754,226.188,24.604z"/>
				</g>
</svg>
